0
SECTION
2
HEADER
9
$INSUNITS
70
4
0
ENDSEC
0
SECTION
2
TABLES
0
TABLE
2
LTYPE
0
LTYPE
72
65
70
64
2
CONTINUOUS
3
______
73
0
40
0
0
ENDTAB
0
TABLE
2
LAYER
0
ENDTAB
0
ENDSEC
0
SECTION
2
ENTITIES
0
LINE
8
0
10
-6.3632727
20
-7.5834531
11
7.5834531
21
-6.3632727
0
LINE
8
0
10
7.5834531
20
-6.3632727
11
6.3632727
21
7.5834531
0
LINE
8
0
10
6.3632727
20
7.5834531
11
-7.5834531
21
6.3632727
0
LINE
8
0
10
-7.5834531
20
6.3632727
11
-6.3632727
21
-7.5834531
0
LINE
8
0
10
-8.0192318
20
11.3442462
11
5.927494
21
12.5644266
0
LINE
8
0
10
5.927494
20
12.5644266
11
4.7073136
21
26.5111524
0
LINE
8
0
10
4.7073136
20
26.5111524
11
-9.2394122
21
25.290972
0
LINE
8
0
10
-9.2394122
20
25.290972
11
-8.0192318
21
11.3442462
0
LINE
8
0
10
-9.6751909
20
30.2719455
11
4.2715349
21
31.4921259
0
LINE
8
0
10
4.2715349
20
31.4921259
11
3.0513545
21
45.4388517
0
LINE
8
0
10
3.0513545
20
45.4388517
11
-10.8953713
21
44.2186713
0
LINE
8
0
10
-10.8953713
20
44.2186713
11
-9.6751909
21
30.2719455
0
LINE
8
0
10
-11.33115
20
49.1996448
11
2.6155758
21
50.4198252
0
LINE
8
0
10
2.6155758
20
50.4198252
11
1.3953954
21
64.366551
0
LINE
8
0
10
1.3953954
20
64.366551
11
-12.5513304
21
63.1463706
0
LINE
8
0
10
-12.5513304
20
63.1463706
11
-11.33115
21
49.1996448
0
LINE
8
0
10
12.5642613
20
-0.6711291
11
26.5450747
21
0.0615743
0
LINE
8
0
10
26.5450747
20
0.0615743
11
25.8123713
21
14.0423877
0
LINE
8
0
10
25.8123713
20
14.0423877
11
11.8315579
21
13.3096843
0
LINE
8
0
10
11.8315579
20
13.3096843
11
12.5642613
21
-0.6711291
0
LINE
8
0
10
11.5698781
20
18.3028321
11
25.5506915
21
19.0355355
0
LINE
8
0
10
25.5506915
20
19.0355355
11
24.8179881
21
33.0163489
0
LINE
8
0
10
24.8179881
20
33.0163489
11
10.8371747
21
32.2836455
0
LINE
8
0
10
10.8371747
20
32.2836455
11
11.5698781
21
18.3028321
0
LINE
8
0
10
10.5754949
20
37.2767933
11
24.5563083
21
38.0094967
0
LINE
8
0
10
24.5563083
20
38.0094967
11
23.8236049
21
51.9903101
0
LINE
8
0
10
23.8236049
20
51.9903101
11
9.8427915
21
51.2576067
0
LINE
8
0
10
9.8427915
20
51.2576067
11
10.5754949
21
37.2767933
0
LINE
8
0
10
9.5811117
20
56.2507545
11
23.5619251
21
56.9834579
0
LINE
8
0
10
23.5619251
20
56.9834579
11
22.8292217
21
70.9642713
0
LINE
8
0
10
22.8292217
20
70.9642713
11
8.8484083
21
70.2315679
0
LINE
8
0
10
8.8484083
20
70.2315679
11
9.5811117
21
56.2507545
0
LINE
8
0
10
31.1981421
20
15.562718
11
45.1960098
21
15.8070517
0
LINE
8
0
10
45.1960098
20
15.8070517
11
44.9516761
21
29.8049194
0
LINE
8
0
10
44.9516761
20
29.8049194
11
30.9538084
21
29.5605857
0
LINE
8
0
10
30.9538084
20
29.5605857
11
31.1981421
21
15.562718
0
LINE
8
0
10
30.8665464
20
34.5598242
11
44.8644141
21
34.8041579
0
LINE
8
0
10
44.8644141
20
34.8041579
11
44.6200804
21
48.8020256
0
LINE
8
0
10
44.6200804
20
48.8020256
11
30.6222127
21
48.5576919
0
LINE
8
0
10
30.6222127
20
48.5576919
11
30.8665464
21
34.5598242
0
LINE
8
0
10
30.5349507
20
53.5569304
11
44.5328184
21
53.8012641
0
LINE
8
0
10
44.5328184
20
53.8012641
11
44.2884847
21
67.7991318
0
LINE
8
0
10
44.2884847
20
67.7991318
11
30.290617
21
67.5547981
0
LINE
8
0
10
30.290617
20
67.5547981
11
30.5349507
21
53.5569304
0
LINE
8
0
10
30.203355
20
72.5540366
11
44.2012227
21
72.7983703
0
LINE
8
0
10
44.2012227
20
72.7983703
11
43.956889
21
86.796238
0
LINE
8
0
10
43.956889
20
86.796238
11
29.9590213
21
86.5519043
0
LINE
8
0
10
29.9590213
20
86.5519043
11
30.203355
21
72.5540366
0
LINE
8
0
10
50.3506935
20
23.496859
11
64.3165902
21
22.5202683
0
LINE
8
0
10
64.3165902
20
22.5202683
11
65.2931809
21
36.486165
0
LINE
8
0
10
65.2931809
20
36.486165
11
51.3272842
21
37.4627557
0
LINE
8
0
10
51.3272842
20
37.4627557
11
50.3506935
21
23.496859
0
LINE
8
0
10
51.6760665
20
42.450576
11
65.6419632
21
41.4739853
0
LINE
8
0
10
65.6419632
20
41.4739853
11
66.6185539
21
55.439882
0
LINE
8
0
10
66.6185539
20
55.439882
11
52.6526572
21
56.4164727
0
LINE
8
0
10
52.6526572
20
56.4164727
11
51.6760665
21
42.450576
0
LINE
8
0
10
53.0014395
20
61.404293
11
66.9673362
21
60.4277023
0
LINE
8
0
10
66.9673362
20
60.4277023
11
67.9439269
21
74.393599
0
LINE
8
0
10
67.9439269
20
74.393599
11
53.9780302
21
75.3701897
0
LINE
8
0
10
53.9780302
20
75.3701897
11
53.0014395
21
61.404293
0
LINE
8
0
10
54.3268125
20
80.35801
11
68.2927092
21
79.3814193
0
LINE
8
0
10
68.2927092
20
79.3814193
11
69.2692999
21
93.347316
0
LINE
8
0
10
69.2692999
20
93.347316
11
55.3034032
21
94.3239067
0
LINE
8
0
10
55.3034032
20
94.3239067
11
54.3268125
21
80.35801
0
LINE
8
0
10
68.8730323
20
19.4434928
11
82.7963388
21
17.9800943
0
LINE
8
0
10
82.7963388
20
17.9800943
11
84.2597373
21
31.9034008
0
LINE
8
0
10
84.2597373
20
31.9034008
11
70.3364308
21
33.3667993
0
LINE
8
0
10
70.3364308
20
33.3667993
11
68.8730323
21
19.4434928
0
LINE
8
0
10
70.8590731
20
38.3394088
11
84.7823796
21
36.8760103
0
LINE
8
0
10
84.7823796
20
36.8760103
11
86.2457781
21
50.7993168
0
LINE
8
0
10
86.2457781
20
50.7993168
11
72.3224716
21
52.2627153
0
LINE
8
0
10
72.3224716
20
52.2627153
11
70.8590731
21
38.3394088
0
LINE
8
0
10
72.8451139
20
57.2353248
11
86.7684204
21
55.7719263
0
LINE
8
0
10
86.7684204
20
55.7719263
11
88.2318189
21
69.6952328
0
LINE
8
0
10
88.2318189
20
69.6952328
11
74.3085124
21
71.1586313
0
LINE
8
0
10
74.3085124
20
71.1586313
11
72.8451139
21
57.2353248
0
LINE
8
0
10
74.8311547
20
76.1312408
11
88.7544612
21
74.6678423
0
LINE
8
0
10
88.7544612
20
74.6678423
11
90.2178597
21
88.5911488
0
LINE
8
0
10
90.2178597
20
88.5911488
11
76.2945532
21
90.0545473
0
LINE
8
0
10
76.2945532
20
90.0545473
11
74.8311547
21
76.1312408
0
LINE
8
0
10
87.0335703
20
12.7571317
11
100.8973233
21
10.8087083
0
LINE
8
0
10
100.8973233
20
10.8087083
11
102.8457467
21
24.6724613
0
LINE
8
0
10
102.8457467
20
24.6724613
11
88.9819937
21
26.6208847
0
LINE
8
0
10
88.9819937
20
26.6208847
11
87.0335703
21
12.7571317
0
LINE
8
0
10
89.6778592
20
31.572225
11
103.5416122
21
29.6238016
0
LINE
8
0
10
103.5416122
20
29.6238016
11
105.4900356
21
43.4875546
0
LINE
8
0
10
105.4900356
20
43.4875546
11
91.6262826
21
45.435978
0
LINE
8
0
10
91.6262826
20
45.435978
11
89.6778592
21
31.572225
0
LINE
8
0
10
92.3221481
20
50.3873183
11
106.1859011
21
48.4388949
0
LINE
8
0
10
106.1859011
20
48.4388949
11
108.1343245
21
62.3026479
0
LINE
8
0
10
108.1343245
20
62.3026479
11
94.2705715
21
64.2510713
0
LINE
8
0
10
94.2705715
20
64.2510713
11
92.3221481
21
50.3873183
0
LINE
8
0
10
94.966437
20
69.2024116
11
108.83019
21
67.2539882
0
LINE
8
0
10
108.83019
20
67.2539882
11
110.7786134
21
81.1177412
0
LINE
8
0
10
110.7786134
20
81.1177412
11
96.9148604
21
83.0661646
0
LINE
8
0
10
96.9148604
20
83.0661646
11
94.966437
21
69.2024116
0
LINE
8
0
10
59.3163868
20
-3.363277
11
73.2972002
21
-4.0959804
0
LINE
8
0
10
73.2972002
20
-4.0959804
11
74.0299036
21
9.884833
0
LINE
8
0
10
74.0299036
20
9.884833
11
60.0490902
21
10.6175364
0
LINE
8
0
10
60.0490902
20
10.6175364
11
59.3163868
21
-3.363277
0
LINE
8
0
10
79.6038326
20
-5.0948529
11
93.1267942
21
-8.7183195
0
LINE
8
0
10
93.1267942
20
-8.7183195
11
96.7502608
21
4.8046421
0
LINE
8
0
10
96.7502608
20
4.8046421
11
83.2272992
21
8.4281087
0
LINE
8
0
10
83.2272992
20
8.4281087
11
79.6038326
21
-5.0948529
0
LINE
8
0
10
99.087934
20
-11.0065867
11
111.5620254
21
-17.3624537
0
LINE
8
0
10
111.5620254
20
-17.3624537
11
117.9178924
21
-4.8883623
0
LINE
8
0
10
117.9178924
20
-4.8883623
11
105.443801
21
1.4675047
0
LINE
8
0
10
105.443801
20
1.4675047
11
99.087934
21
-11.0065867
0
LINE
8
0
10
116.9080645
20
-20.0863967
11
129.3821559
21
-26.4422637
0
LINE
8
0
10
129.3821559
20
-26.4422637
11
135.7380229
21
-13.9681723
0
LINE
8
0
10
135.7380229
20
-13.9681723
11
123.2639315
21
-7.6123053
0
LINE
8
0
10
123.2639315
20
-7.6123053
11
116.9080645
21
-20.0863967
0
LINE
8
0
10
116.6238187
20
1.3826322
11
129.0979101
21
-4.9732348
0
LINE
8
0
10
129.0979101
20
-4.9732348
11
135.4537771
21
7.5008566
0
LINE
8
0
10
135.4537771
20
7.5008566
11
122.9796857
21
13.8567236
0
LINE
8
0
10
122.9796857
20
13.8567236
11
116.6238187
21
1.3826322
0
ENDSEC
0
EOF