0
SECTION
2
HEADER
9
$INSUNITS
70
4
0
ENDSEC
0
SECTION
2
TABLES
0
TABLE
2
LTYPE
0
LTYPE
72
65
70
64
2
CONTINUOUS
3
______
73
0
40
0
0
ENDTAB
0
TABLE
2
LAYER
0
ENDTAB
0
ENDSEC
0
SECTION
2
ENTITIES
0
LINE
8
0
10
-13.4176951
20
-18.7407433
11
16.4681459
21
-16.1260711
0
LINE
8
0
10
18.2862239
20
-13.9593703
11
18.1990416
21
-12.9628719
0
LINE
8
0
10
-23.2541012
20
70.7424682
11
-15.5843959
21
-16.9226653
0
LINE
8
0
10
-3.3215488
20
74.4939801
11
-21.4360232
21
72.909169
0
LINE
8
0
10
20.086759
20
-10.7913014
11
35.0836386
21
-10.0053482
0
LINE
8
0
10
36.9762257
20
-7.9034171
11
36.4005142
21
3.0818119
0
LINE
8
0
10
18.1198646
20
81.231874
11
0.3098444
21
80.2984904
0
LINE
8
0
10
-1.5827427
20
78.1965593
11
-1.4986011
21
76.5910415
0
LINE
8
0
10
38.3628685
20
5.1861793
11
47.6167375
21
5.3477062
0
LINE
8
0
10
43.6564283
20
97.2925929
11
21.7769895
21
96.9106859
0
LINE
8
0
10
19.8121989
20
94.8760857
11
20.014888
21
83.2640379
0
LINE
8
0
10
79.9108796
20
102.1731261
11
79.9773833
21
103.1241738
0
LINE
8
0
10
79.9773833
20
103.1241738
11
48.0553337
21
105.3563809
0
LINE
8
0
10
45.9206927
20
103.5007658
11
45.6166516
21
99.1527753
0
LINE
8
0
10
100.9519163
20
95.0511531
11
101.0515706
21
95.9993002
0
LINE
8
0
10
99.2715838
20
98.197401
11
81.6969507
21
100.0445694
0
LINE
8
0
10
111.2973428
20
12.9557274
11
121.8642654
21
88.1432888
0
LINE
8
0
10
120.1620755
20
90.4021711
11
102.6626139
21
92.86156
0
LINE
8
0
10
50.7778229
20
-13.4301995
11
74.6414793
21
-14.6808407
0
LINE
8
0
10
49.6489014
20
3.2433387
11
48.8852358
21
-11.3282684
0
LINE
8
0
10
75.0544454
20
-14.7462481
11
92.2409814
21
-19.3513666
0
LINE
8
0
10
92.6313244
20
-19.5012053
11
131.7433079
21
-39.4297562
0
LINE
8
0
10
134.4333019
20
-38.5557242
11
148.5070074
21
-10.9345218
0
LINE
8
0
10
147.6329754
20
-8.2445278
11
142.2869361
21
-5.5205848
0
LINE
8
0
10
141.4129041
20
-2.8305908
11
148.2227616
21
10.5345071
0
LINE
8
0
10
147.3487296
20
13.2245011
11
120.6185337
21
26.8442161
0
LINE
8
0
10
117.9285397
20
25.9701841
11
111.2973428
21
12.9557274
0
ARC
8
0
10
16.2938345
20
-14.1336817
40
2
50
274.9999976
51
4.9999976
0
ARC
8
0
10
20.191431
20
-12.7885605
40
2
50
93.0000026
51
184.9999976
0
ARC
8
0
10
34.9789666
20
-8.0080891
40
2
50
273.0000026
51
3.0000026
0
ARC
8
0
10
38.3977733
20
3.1864839
40
2
50
90.9999996
51
183.0000026
0
ARC
8
0
10
47.6516423
20
3.3480108
40
2
50
356.9999974
51
90.9999996
0
ARC
8
0
10
50.8824949
20
-11.4329404
40
2
50
176.9999974
51
266.9999974
0
ARC
8
0
10
74.5368073
20
-16.6780998
40
2
50
75.0000021
51
86.9999974
0
ARC
8
0
10
91.7233434
20
-21.2832183
40
2
50
62.9999994
51
75.0000021
0
ARC
8
0
10
132.6512889
20
-37.6477432
40
2
50
242.9999994
51
332.9999994
0
ARC
8
0
10
146.7249944
20
-10.0265408
40
2
50
332.9999994
51
62.9999994
0
ARC
8
0
10
143.1949171
20
-3.7385718
40
2
50
152.9999994
51
242.9999994
0
ARC
8
0
10
146.4407486
20
11.4424881
40
2
50
332.9999994
51
62.9999994
0
ARC
8
0
10
119.7105527
20
25.0622031
40
2
50
62.9999994
51
152.9999994
0
ARC
8
0
10
119.8837293
20
88.421635
40
2
50
352.0000003
51
82.0000003
0
ARC
8
0
10
102.9409601
20
94.8420961
40
2
50
173.9999979
51
262.0000003
0
ARC
8
0
10
99.0625268
20
96.2083572
40
2
50
353.9999979
51
83.9999979
0
ARC
8
0
10
81.9060077
20
102.0336132
40
2
50
175.9999987
51
263.9999979
0
ARC
8
0
10
47.9158208
20
103.3612529
40
2
50
85.9999987
51
175.9999987
0
ARC
8
0
10
43.6215235
20
99.2922883
40
2
50
270.9999996
51
355.9999987
0
ARC
8
0
10
21.8118943
20
94.9109905
40
2
50
90.9999996
51
180.9999996
0
ARC
8
0
10
18.0151926
20
83.2291331
40
2
50
273.0000026
51
0.9999996
0
ARC
8
0
10
0.4145164
20
78.3012313
40
2
50
93.0000026
51
183.0000026
0
ARC
8
0
10
-3.4958602
20
76.4863695
40
2
50
274.9999976
51
3.0000026
0
ARC
8
0
10
-21.2617118
20
70.9167796
40
2
50
94.9999976
51
184.9999976
0
ARC
8
0
10
-13.5920065
20
-16.7483539
40
2
50
184.9999976
51
274.9999976
0
ENDSEC
0
EOF